<svg width="41" height="40" viewBox="0 0 41 40" fill="none" xmlns="http://www.w3.org/2000/svg">
<path d="M0 2.43696C0 1.05117 1.12473 -0.0802387 2.50793 0.00448143C12.1328 0.593999 21.2735 4.56212 28.2915 11.253C35.3095 17.9438 39.7091 26.8848 40.7571 36.4706C40.9077 37.8482 39.8312 39.0256 38.447 39.0917C37.0628 39.1578 35.8961 38.0874 35.7337 36.7111C34.755 28.4141 30.9131 20.6861 24.8286 14.8852C18.7441 9.0843 10.8416 5.61545 2.5073 5.03356C1.12487 4.93705 0 3.82276 0 2.43696Z" fill="white" fill-opacity="0.2"/>
<path d="M0 2.43696C0 1.05117 1.12473 -0.0802387 2.50793 0.00448143C12.1328 0.593999 21.2735 4.56212 28.2915 11.253C35.3095 17.9438 39.7091 26.8848 40.7571 36.4706C40.9077 37.8482 39.8312 39.0256 38.447 39.0917C37.0628 39.1578 35.8961 38.0874 35.7337 36.7111C34.755 28.4141 30.9131 20.6861 24.8286 14.8852C18.7441 9.0843 10.8416 5.61545 2.5073 5.03356C1.12487 4.93705 0 3.82276 0 2.43696Z" fill="#63D568"/>
</svg>
