<svg width="23" height="24" viewBox="0 0 23 24" fill="none" xmlns="http://www.w3.org/2000/svg">
<path d="M0.923077 6.46154C0.678262 6.46154 0.443474 6.36429 0.270363 6.19118C0.0972527 6.01806 0 5.78328 0 5.53846V2.76923C0 2.03479 0.291757 1.33042 0.811089 0.811089C1.33042 0.291757 2.03479 0 2.76923 0H5.53846C5.78328 0 6.01806 0.0972524 6.19118 0.270363C6.36429 0.443473 6.46154 0.678262 6.46154 0.923077C6.46154 1.16789 6.36429 1.40268 6.19118 1.57579C6.01806 1.7489 5.78328 1.84615 5.53846 1.84615H2.76923C2.52442 1.84615 2.28963 1.94341 2.11652 2.11652C1.94341 2.28963 1.84615 2.52442 1.84615 2.76923V5.53846C1.84615 5.78328 1.7489 6.01806 1.57579 6.19118C1.40268 6.36429 1.16789 6.46154 0.923077 6.46154ZM22.1538 5.53846V2.76923C22.1538 2.03479 21.8621 1.33042 21.3428 0.811089C20.8234 0.291757 20.1191 0 19.3846 0H16.6154C16.3706 0 16.1358 0.0972524 15.9627 0.270363C15.7896 0.443473 15.6923 0.678262 15.6923 0.923077C15.6923 1.16789 15.7896 1.40268 15.9627 1.57579C16.1358 1.7489 16.3706 1.84615 16.6154 1.84615H19.3846C19.6294 1.84615 19.8642 1.94341 20.0373 2.11652C20.2104 2.28963 20.3077 2.52442 20.3077 2.76923V5.53846C20.3077 5.78328 20.4049 6.01806 20.5781 6.19118C20.7512 6.36429 20.986 6.46154 21.2308 6.46154C21.4756 6.46154 21.7104 6.36429 21.8835 6.19118C22.0566 6.01806 22.1538 5.78328 22.1538 5.53846ZM6.46154 23.0769C6.46154 22.8321 6.36429 22.5973 6.19118 22.4242C6.01806 22.2511 5.78328 22.1538 5.53846 22.1538H2.76923C2.52442 22.1538 2.28963 22.0566 2.11652 21.8835C1.94341 21.7104 1.84615 21.4756 1.84615 21.2308V18.4615C1.84615 18.2167 1.7489 17.9819 1.57579 17.8088C1.40268 17.6357 1.16789 17.5385 0.923077 17.5385C0.678262 17.5385 0.443474 17.6357 0.270363 17.8088C0.0972527 17.9819 0 18.2167 0 18.4615V21.2308C0 21.9652 0.291757 22.6696 0.811089 23.1889C1.33042 23.7082 2.03479 24 2.76923 24H5.53846C5.78328 24 6.01806 23.9027 6.19118 23.7296C6.36429 23.5565 6.46154 23.3217 6.46154 23.0769ZM22.1538 21.2308V18.4615C22.1538 18.2167 22.0566 17.9819 21.8835 17.8088C21.7104 17.6357 21.4756 17.5385 21.2308 17.5385C20.986 17.5385 20.7512 17.6357 20.5781 17.8088C20.4049 17.9819 20.3077 18.2167 20.3077 18.4615V21.2308C20.3077 21.4756 20.2104 21.7104 20.0373 21.8835C19.8642 22.0566 19.6294 22.1538 19.3846 22.1538H16.6154C16.3706 22.1538 16.1358 22.2511 15.9627 22.4242C15.7896 22.5973 15.6923 22.8321 15.6923 23.0769C15.6923 23.3217 15.7896 23.5565 15.9627 23.7296C16.1358 23.9027 16.3706 24 16.6154 24H19.3846C20.1191 24 20.8234 23.7082 21.3428 23.1889C21.8621 22.6696 22.1538 21.9652 22.1538 21.2308Z" fill="url(#paint0_linear_150_1300)"/>
<path d="M15.0658 11.1361H12.9803V6.2765C12.9803 5.1426 12.3661 4.91312 11.6169 5.76355L11.0769 6.37774L6.50758 11.5748C5.87989 12.2835 6.14312 12.8639 7.08803 12.8639H9.1736V17.7235C9.1736 18.8574 9.7878 19.0869 10.537 18.2365L11.0769 17.6223L15.6463 12.4252C16.274 11.7165 16.0108 11.1361 15.0658 11.1361Z" fill="url(#paint1_linear_150_1300)"/>
<defs>
<linearGradient id="paint0_linear_150_1300" x1="18.4615" y1="21.9258" x2="6.98895" y2="4.63099" gradientUnits="userSpaceOnUse">
<stop stop-color="#00C0FF"/>
<stop offset="1" stop-color="#5558FF"/>
</linearGradient>
<linearGradient id="paint1_linear_150_1300" x1="14.3508" y1="17.5833" x2="7.44901" y2="9.38303" gradientUnits="userSpaceOnUse">
<stop stop-color="#00C0FF"/>
<stop offset="1" stop-color="#5558FF"/>
</linearGradient>
</defs>
</svg>
