<svg width="35" height="35" viewBox="0 0 35 35" fill="none" xmlns="http://www.w3.org/2000/svg">
<g clip-path="url(#clip0_203_1724)">
<path d="M25.4021 23.7358C27.0698 23.7358 28.4217 22.3839 28.4217 20.7162V8.619C29.5109 7.80974 30.1461 6.83818 30.1461 5.79319C30.1461 2.97274 25.5228 0.686279 19.8196 0.686279H11.0129C16.7161 0.686279 21.3394 2.97274 21.3394 5.79319C21.3394 6.83818 20.7042 7.80974 19.6151 8.619V20.1714C19.6151 22.1399 18.0193 23.7358 16.0507 23.7358H25.4021Z" fill="#D46B5C"/>
<path d="M28.4218 20.7161V10.3291C28.0842 10.3517 27.7419 10.3826 27.3938 10.4239C24.937 10.7152 22.2454 11.4745 19.5422 12.622V20.1714C19.5422 22.1399 17.9464 23.7358 15.9778 23.7358H25.4021C27.0698 23.7358 28.4218 22.3838 28.4218 20.7161Z" fill="#B55348"/>
<path d="M21.3394 5.79316C21.3394 2.97271 16.716 0.686249 11.0128 0.686249C5.30957 0.686249 0.686279 2.97271 0.686279 5.79316C0.686279 6.83815 1.3215 7.80971 2.41061 8.61897V20.7161C2.41061 22.3838 3.76251 23.7357 5.43022 23.7357H16.5954C18.2631 23.7357 19.615 22.3838 19.615 20.7161V8.61897C20.7042 7.80971 21.3394 6.83815 21.3394 5.79316Z" fill="#FDE0BE"/>
<path d="M21.3394 5.79316C21.3394 2.97271 16.716 0.686249 11.0128 0.686249C5.30957 0.686249 0.686279 2.97271 0.686279 5.79316C0.686279 6.83815 1.3215 7.80971 2.41061 8.61897V20.7161C2.41061 22.3838 3.76251 23.7357 5.43022 23.7357H16.5954C18.2631 23.7357 19.615 22.3838 19.615 20.7161V8.61897C20.7042 7.80971 21.3394 6.83815 21.3394 5.79316Z" fill="#FDE0BE"/>
<path d="M15.3184 14.7327C11.2746 17.0674 7.80509 20.0161 5.5491 23.036C5.38296 23.2583 5.22138 23.484 5.06445 23.7129C5.18448 23.7274 5.30637 23.7358 5.43024 23.7358H16.5954C18.2632 23.7358 19.6151 22.3839 19.6151 20.7161V12.5916C18.1754 13.199 16.7319 13.9165 15.3184 14.7327Z" fill="#F7B073"/>
<path d="M24.4046 30.6391C31.3971 26.6021 35.6603 20.8954 33.9269 17.893C32.1934 14.8906 25.1197 15.7294 18.1273 19.7664C11.1349 23.8035 6.8716 29.5102 8.60505 32.5126C10.3385 35.515 17.4122 34.6762 24.4046 30.6391Z" fill="#FDE0BE"/>
<path d="M18.3542 22.4981C18.3542 21.4252 18.5017 20.3869 18.7768 19.4017C18.5591 19.5212 18.3428 19.643 18.1278 19.7671C11.1354 23.8042 6.87216 29.5108 8.60562 32.5132C10.2021 35.2784 16.3283 34.7853 22.7488 31.5364C20.0729 29.4326 18.3542 26.1661 18.3542 22.4981Z" fill="#F7B073"/>
<path d="M18.5698 24.7205C19.9691 25.7386 21.1991 26.172 21.6596 25.7115C22.3053 25.0658 21.1937 22.9073 19.1767 20.8904C18.7894 20.5031 18.3969 20.1495 18.0108 19.835L17.4329 22.7562L18.5698 24.7205Z" fill="#D46B5C"/>
<path d="M18.57 24.7203C18.4265 23.9882 18.3542 23.244 18.3542 22.4981C18.3544 21.7636 18.4247 21.0309 18.5643 20.3098C18.3837 20.147 18.1992 19.9887 18.0109 19.835C17.0797 20.3744 16.1976 20.9434 15.3716 21.5314C15.7765 22.0839 16.2718 22.6618 16.8385 23.2286C17.4172 23.8072 18.0072 24.3108 18.57 24.7203Z" fill="#B55348"/>
<path d="M26.8596 21.9057C27.503 21.2623 26.3895 19.1057 24.3726 17.0888C24.3525 17.0687 24.3324 17.0494 24.3124 17.0295C23.2473 17.3601 22.1407 17.7803 21.0158 18.2882C21.3232 18.6627 21.6673 19.0431 22.0428 19.4186C24.0597 21.4355 26.2163 22.549 26.8596 21.9057Z" fill="#D46B5C"/>
<path d="M16.1226 28.7707C16.7727 28.1206 15.6647 25.9585 13.6477 23.9416C13.4549 23.7487 13.2573 23.5607 13.0552 23.3776C12.1761 24.1476 11.4057 24.94 10.7424 25.7167C10.9212 25.9143 11.1049 26.1074 11.2934 26.2959C13.3103 28.3128 15.4725 29.4208 16.1226 28.7707Z" fill="#B55348"/>
<path d="M19.615 18.9525V8.61897C20.7042 7.80971 21.3394 6.83815 21.3394 5.79316C21.3394 2.97271 16.716 0.686249 11.0128 0.686249C5.30957 0.686249 0.686279 2.97271 0.686279 5.79316C0.686279 6.83815 1.3215 7.80971 2.41061 8.61897V20.7161C2.41061 22.3838 3.76257 23.7357 5.43022 23.7357H12.6848" stroke="#CC5949" stroke-width="1.37255" stroke-miterlimit="10" stroke-linejoin="round"/>
<path d="M28.4218 16.1117V8.61893C29.5109 7.80967 30.1461 6.83811 30.1461 5.79312C30.146 2.97274 25.5227 0.686279 19.8195 0.686279H11.0128" stroke="#CC5949" stroke-width="1.37255" stroke-miterlimit="10" stroke-linejoin="round"/>
<path d="M24.4046 30.6391C31.3971 26.6021 35.6603 20.8954 33.9269 17.893C32.1934 14.8906 25.1197 15.7294 18.1273 19.7664C11.1349 23.8035 6.8716 29.5102 8.60505 32.5126C10.3385 35.515 17.4122 34.6762 24.4046 30.6391Z" stroke="#CC5949" stroke-width="1.37255" stroke-miterlimit="10" stroke-linejoin="round"/>
</g>
<defs>
<clipPath id="clip0_203_1724">
<rect width="35" height="35" fill="white"/>
</clipPath>
</defs>
</svg>
