<svg width="35" height="35" viewBox="0 0 35 35" fill="none" xmlns="http://www.w3.org/2000/svg">
<g clip-path="url(#clip0_203_1742)">
<path d="M6.5625 24.0625C10.1869 24.0625 13.125 21.1244 13.125 17.5C13.125 13.8756 10.1869 10.9375 6.5625 10.9375C2.93813 10.9375 0 13.8756 0 17.5C0 21.1244 2.93813 24.0625 6.5625 24.0625Z" fill="#FFE770"/>
<path d="M8.75 15.3125C12.3744 15.3125 15.3125 12.3744 15.3125 8.75C15.3125 5.12563 12.3744 2.1875 8.75 2.1875C5.12563 2.1875 2.1875 5.12563 2.1875 8.75C2.1875 12.3744 5.12563 15.3125 8.75 15.3125Z" fill="#FFBC12"/>
<path d="M8.75 32.8125C12.3744 32.8125 15.3125 29.8744 15.3125 26.25C15.3125 22.6256 12.3744 19.6875 8.75 19.6875C5.12563 19.6875 2.1875 22.6256 2.1875 26.25C2.1875 29.8744 5.12563 32.8125 8.75 32.8125Z" fill="#FFBC12"/>
<path d="M28.4375 24.0625C32.0619 24.0625 35 21.1244 35 17.5C35 13.8756 32.0619 10.9375 28.4375 10.9375C24.8131 10.9375 21.875 13.8756 21.875 17.5C21.875 21.1244 24.8131 24.0625 28.4375 24.0625Z" fill="#FFD930"/>
<path d="M26.25 32.8125C29.8744 32.8125 32.8125 29.8744 32.8125 26.25C32.8125 22.6256 29.8744 19.6875 26.25 19.6875C22.6256 19.6875 19.6875 22.6256 19.6875 26.25C19.6875 29.8744 22.6256 32.8125 26.25 32.8125Z" fill="#F79D28"/>
<path d="M26.25 15.3125C29.8744 15.3125 32.8125 12.3744 32.8125 8.75C32.8125 5.12563 29.8744 2.1875 26.25 2.1875C22.6256 2.1875 19.6875 5.12563 19.6875 8.75C19.6875 12.3744 22.6256 15.3125 26.25 15.3125Z" fill="#F79D28"/>
<path d="M10.9375 6.5625C10.9375 10.1868 13.8757 13.125 17.5 13.125L19.0829 6.5625L17.5 0C13.8757 0 10.9375 2.93815 10.9375 6.5625Z" fill="#FFF2B3"/>
<path d="M17.5 0V13.125C21.1243 13.125 24.0625 10.1868 24.0625 6.5625C24.0625 2.93815 21.1243 0 17.5 0Z" fill="#FFE770"/>
<path d="M10.9375 28.4375C10.9375 32.0618 13.8757 35 17.5 35L18.7971 28.4375L17.5 21.875C13.8757 21.875 10.9375 24.8132 10.9375 28.4375Z" fill="#FFF2B3"/>
<path d="M17.5 21.875V35C21.1243 35 24.0625 32.0618 24.0625 28.4375C24.0625 24.8132 21.1243 21.875 17.5 21.875Z" fill="#FFE770"/>
<path d="M10.9375 17.5C10.9375 21.1243 13.8757 24.0625 17.5 24.0625L19.6875 17.5L17.5 10.9375C13.8757 10.9375 10.9375 13.8757 10.9375 17.5Z" fill="#FFD930"/>
<path d="M17.5 10.9375V24.0625C21.1243 24.0625 24.0625 21.1243 24.0625 17.5C24.0625 13.8757 21.1243 10.9375 17.5 10.9375Z" fill="#FFBC12"/>
<path d="M14.2233 16.4746H16.4017V18.5254H14.2233V16.4746ZM14.2233 27.4121H16.4017V29.4629H14.2233V27.4121ZM5.47327 7.72461H7.65167V9.77539H5.47327V7.72461ZM5.47327 25.2246H7.65167V27.2754H5.47327V25.2246ZM14.2233 5.53711H16.4017V7.58789H14.2233V5.53711Z" fill="#704070"/>
</g>
<defs>
<clipPath id="clip0_203_1742">
<rect width="35" height="35" fill="white"/>
</clipPath>
</defs>
</svg>
