<svg width="35" height="35" viewBox="0 0 35 35" fill="none" xmlns="http://www.w3.org/2000/svg">
<path d="M3.75892 17.2211C3.75892 17.2211 3.35505 27.6145 12.4414 27.6317C19.3706 27.6448 20.9923 23.2088 25.022 23.5528C28.2611 23.8293 31.2544 21.9311 31.2544 15.8865C31.2555 12.3695 3.75892 17.2211 3.75892 17.2211Z" fill="#FECEC0"/>
<path d="M11.7127 24.4048C7.07246 24.4048 4.19918 20.7908 3.75895 17.2211C3.31352 13.6076 5.27379 9.35785 10.6575 8.0098C12.369 7.58278 14.1263 7.36734 15.8903 7.36832C20.0588 7.39087 24.1489 8.50319 27.7547 10.5949C30.8719 12.4217 31.6187 14.9259 31.1924 16.791C30.9503 17.8357 30.3588 18.7665 29.5158 19.4293C28.6727 20.0921 27.6286 20.4473 26.5563 20.4359C25.9819 20.4332 25.4113 20.3434 24.8639 20.1696C24.7223 20.1257 24.5747 20.1042 24.4264 20.1059C23.5241 20.1059 22.0749 20.7577 20.0703 21.6595C18.8174 22.2231 17.2583 22.9245 15.3882 23.6633C14.2208 24.1399 12.9737 24.3915 11.7127 24.4048Z" fill="#FD9025"/>
<path d="M26.7493 12.4007C26.7493 12.4007 19.7635 7.85779 11.1587 10.0122C1.71743 12.3761 5.80122 25.2334 14.6289 21.7443C20.6811 19.3523 23.1568 17.4751 25.4778 18.1995C29.1394 19.3422 31.0184 14.7807 26.7493 12.4007Z" fill="#FC642B"/>
<path d="M11.0909 18.4912C12.2716 18.4912 13.2287 17.5341 13.2287 16.3535C13.2287 15.1729 12.2716 14.2158 11.0909 14.2158C9.91028 14.2158 8.95319 15.1729 8.95319 16.3535C8.95319 17.5341 9.91028 18.4912 11.0909 18.4912Z" fill="#FECEC0"/>
</svg>
